<svg width="122" height="40" viewBox="0 0 122 40" fill="none" xmlns="http://www.w3.org/2000/svg">
<rect x="0.5" y="0.5" width="121" height="39" rx="3.5" fill="white"/>
<rect x="0.5" y="0.5" width="121" height="39" rx="3.5" stroke="#002CFB"/>
<path d="M25.0293 24H26.5605V20.6299H28.7002C30.6416 20.6299 31.9746 19.3105 31.9746 17.3828V17.3691C31.9746 15.4346 30.6416 14.1357 28.7002 14.1357H25.0293V24ZM28.3242 15.4277C29.6504 15.4277 30.416 16.1455 30.416 17.376V17.3896C30.416 18.627 29.6504 19.3447 28.3242 19.3447H26.5605V15.4277H28.3242ZM35.3857 24.1299C36.3428 24.1299 37.1699 23.6377 37.5869 22.8652H37.6211V24H39.0977V19.0439C39.0977 17.6016 37.9834 16.6719 36.2266 16.6719C34.4561 16.6719 33.3828 17.6221 33.2803 18.8594L33.2734 18.9346H34.668L34.6816 18.873C34.8047 18.2988 35.3311 17.8955 36.1855 17.8955C37.1016 17.8955 37.6211 18.374 37.6211 19.167V19.707L35.6592 19.8232C33.957 19.9258 32.9863 20.6914 32.9863 21.9424V21.9561C32.9863 23.248 33.9502 24.1299 35.3857 24.1299ZM34.4766 21.9219V21.9082C34.4766 21.2998 34.9688 20.9102 35.8574 20.8555L37.6211 20.7461V21.3066C37.6211 22.2432 36.8281 22.9473 35.7891 22.9473C34.9961 22.9473 34.4766 22.5508 34.4766 21.9219ZM43.7461 24.1436C45.4756 24.1436 46.6787 23.0361 46.8359 21.5938L46.8428 21.5459H45.4277L45.4141 21.6006C45.2363 22.3799 44.6621 22.9062 43.7529 22.9062C42.6045 22.9062 41.8457 21.9834 41.8457 20.4111V20.4043C41.8457 18.8662 42.5908 17.9092 43.7393 17.9092C44.7031 17.9092 45.25 18.5039 45.4072 19.208L45.4209 19.2627H46.8291L46.8223 19.2148C46.6992 17.8613 45.5781 16.6719 43.7324 16.6719C41.6748 16.6719 40.335 18.1143 40.335 20.3906V20.3975C40.335 22.7012 41.6475 24.1436 43.7461 24.1436ZM48.0117 24H49.4883V17.9844H52.6602V24H54.1436V16.8086H48.0117V24ZM58.8262 24.1436C60.8838 24.1436 62.2373 22.7217 62.2373 20.4043V20.3906C62.2373 18.0869 60.8701 16.6719 58.8262 16.6719C56.7822 16.6719 55.415 18.0938 55.415 20.3906V20.4043C55.415 22.7148 56.7617 24.1436 58.8262 24.1436ZM58.833 22.9062C57.6777 22.9062 56.9258 21.9971 56.9258 20.4043V20.3906C56.9258 18.8184 57.6846 17.9092 58.8262 17.9092C59.9746 17.9092 60.7334 18.8184 60.7334 20.3906V20.4043C60.7334 21.9902 59.9883 22.9062 58.833 22.9062ZM66.0928 24.1436C67.8564 24.1436 69.0254 23.248 69.0254 21.9082V21.8945C69.0254 21.0537 68.5059 20.4795 67.5557 20.2881V20.2334C68.3281 20.0557 68.8271 19.4473 68.8271 18.6748V18.6611C68.8271 17.4307 67.8154 16.6719 66.1611 16.6719C64.541 16.6719 63.4814 17.4375 63.3105 18.7158L63.3037 18.7705H64.7119L64.7188 18.7227C64.8281 18.1758 65.3682 17.8408 66.1406 17.8408C66.9199 17.8408 67.3848 18.2031 67.3848 18.8184V18.832C67.3848 19.4746 66.9404 19.8027 66.0723 19.8027H65.04V20.876H66.0791C67.0771 20.876 67.5557 21.2041 67.5557 21.8945V21.9082C67.5557 22.5645 66.9951 22.9678 66.0859 22.9678C65.2725 22.9678 64.7393 22.6533 64.5752 22.0723L64.5547 22.0039H63.1055L63.1123 22.0654C63.2559 23.3369 64.4111 24.1436 66.0928 24.1436ZM75.041 24H76.5176V16.8086H75.041V19.707H71.8008V16.8086H70.3242V24H71.8008V20.876H75.041V24ZM80.2158 24.1299C81.1729 24.1299 82 23.6377 82.417 22.8652H82.4512V24H83.9277V19.0439C83.9277 17.6016 82.8135 16.6719 81.0566 16.6719C79.2861 16.6719 78.2129 17.6221 78.1104 18.8594L78.1035 18.9346H79.498L79.5117 18.873C79.6348 18.2988 80.1611 17.8955 81.0156 17.8955C81.9316 17.8955 82.4512 18.374 82.4512 19.167V19.707L80.4893 19.8232C78.7871 19.9258 77.8164 20.6914 77.8164 21.9424V21.9561C77.8164 23.248 78.7803 24.1299 80.2158 24.1299ZM79.3066 21.9219V21.9082C79.3066 21.2998 79.7988 20.9102 80.6875 20.8555L82.4512 20.7461V21.3066C82.4512 22.2432 81.6582 22.9473 80.6191 22.9473C79.8262 22.9473 79.3066 22.5508 79.3066 21.9219ZM90.8457 16.8086H84.8643V17.9844H87.1133V24H88.5967V17.9844H90.8457V16.8086ZM91.9258 24H94.7695C96.4307 24 97.5039 23.0361 97.5039 21.5186V21.5049C97.5039 19.9941 96.4307 19.0303 94.7695 19.0303H93.4023V16.8086H91.9258V24ZM94.626 20.1992C95.46 20.1992 95.9932 20.7119 95.9932 21.5049V21.5186C95.9932 22.3115 95.4668 22.8311 94.626 22.8311H93.4023V20.1992H94.626Z" fill="#005FF8"/>
</svg>
